<svg width="24" height="24" viewBox="0 0 24 24" fill="none" xmlns="http://www.w3.org/2000/svg">
<path d="M22.5 21.4396L18.9832 17.9236C19.9231 16.7139 20.3665 15.1916 20.2233 13.6664C20.08 12.1413 19.3608 10.7281 18.2122 9.71466C17.0636 8.70118 15.5718 8.16362 14.0407 8.21143C12.5096 8.25924 11.0543 8.88884 9.97115 9.97201C8.88798 11.0552 8.25839 12.5105 8.21058 14.0416C8.16277 15.5727 8.70033 17.0644 9.71381 18.2131C10.7273 19.3617 12.1405 20.0809 13.6656 20.2241C15.1907 20.3674 16.7131 19.9239 17.9227 18.9841L21.4395 22.5001L22.5 21.4396ZM14.25 18.7501C13.36 18.7501 12.4899 18.4862 11.7499 17.9917C11.0099 17.4972 10.4331 16.7944 10.0925 15.9722C9.75193 15.1499 9.66282 14.2451 9.83645 13.3722C10.0101 12.4993 10.4387 11.6974 11.068 11.0681C11.6973 10.4388 12.4992 10.0102 13.3721 9.83656C14.245 9.66292 15.1498 9.75204 15.9721 10.0926C16.7943 10.4332 17.4971 11.01 17.9916 11.75C18.4861 12.49 18.75 13.3601 18.75 14.2501C18.7486 15.4431 18.274 16.5869 17.4304 17.4305C16.5868 18.2741 15.443 18.7487 14.25 18.7501Z" fill="#777777"/>
<path d="M1.5 9H7.5V10.5H1.5V9Z" fill="#777777"/>
<path d="M1.5 1.5H13.5V3H1.5V1.5Z" fill="#777777"/>
<path d="M1.5 5.25H13.5V6.75H1.5V5.25Z" fill="#777777"/>
</svg>
