<svg width="15" height="15" viewBox="0 0 15 15" fill="none" xmlns="http://www.w3.org/2000/svg">
<path d="M14.5 13.4396L10.9832 9.92359C11.9231 8.71395 12.3665 7.19157 12.2233 5.66644C12.08 4.14132 11.3608 2.72814 10.2122 1.71466C9.06355 0.701184 7.57181 0.16362 6.04072 0.211432C4.50963 0.259245 3.05433 0.888838 1.97115 1.97201C0.887983 3.05518 0.25839 4.51048 0.210578 6.04157C0.162766 7.57266 0.70033 9.06441 1.71381 10.2131C2.72728 11.3617 4.14047 12.0809 5.66559 12.2241C7.19071 12.3674 8.71309 11.9239 9.92273 10.9841L13.4395 14.5001L14.5 13.4396ZM6.24998 10.7501C5.35997 10.7501 4.48994 10.4862 3.74992 9.9917C3.0099 9.49724 2.43312 8.79443 2.09253 7.97217C1.75193 7.1499 1.66282 6.2451 1.83645 5.37218C2.01008 4.49927 2.43867 3.69745 3.068 3.06811C3.69734 2.43877 4.49916 2.01019 5.37208 1.83656C6.24499 1.66292 7.14979 1.75204 7.97206 2.09263C8.79433 2.43323 9.49713 3.01 9.9916 3.75002C10.4861 4.49005 10.75 5.36007 10.75 6.25009C10.7486 7.44314 10.274 8.58692 9.43043 9.43054C8.58682 10.2741 7.44303 10.7487 6.24998 10.7501Z" fill="#777777"/>
</svg>
