<svg xmlns="http://www.w3.org/2000/svg" xmlns:xlink="http://www.w3.org/1999/xlink"><symbol id="icon-close" viewBox="0 0 12 12"><path d="M.48.95L1.44 0 12 10.445l-.96.95z"/><path d="M11.52.95L10.56 0 0 10.445l.96.95z"/></symbol><symbol id="icon-discord" viewBox="0 0 24 18"><path d="M20.317 1.492c-1.53-.69-3.17-1.2-4.885-1.49a.075.075 0 00-.079.036c-.21.369-.444.85-.608 1.23a18.566 18.566 0 00-5.487 0 12.359 12.359 0 00-.617-1.23A.077.077 0 008.562 0C6.848.29 5.208.8 3.677 1.491a.07.07 0 00-.032.027C.533 6.093-.32 10.555.099 14.961a.08.08 0 00.031.055 20.031 20.031 0 005.993 2.98.078.078 0 00.084-.026 13.83 13.83 0 001.226-1.963.074.074 0 00-.041-.104 13.211 13.211 0 01-1.872-.878.075.075 0 01-.008-.125c.126-.093.252-.19.372-.287a.076.076 0 01.078-.01c3.927 1.764 8.18 1.764 12.061 0a.075.075 0 01.079.009c.12.098.245.195.372.288a.075.075 0 01.02.1.075.075 0 01-.026.025c-.598.344-1.22.635-1.873.877a.075.075 0 00-.041.105c.36.687.772 1.341 1.225 1.962a.078.078 0 00.084.028 19.966 19.966 0 006.002-2.981.076.076 0 00.032-.054c.5-5.094-.838-9.52-3.549-13.442a.06.06 0 00-.031-.028zM8.02 12.278c-1.182 0-2.157-1.069-2.157-2.38 0-1.312.956-2.38 2.157-2.38 1.21 0 2.176 1.077 2.157 2.38 0 1.312-.956 2.38-2.157 2.38zm7.975 0c-1.183 0-2.157-1.069-2.157-2.38 0-1.312.955-2.38 2.157-2.38 1.21 0 2.176 1.077 2.157 2.38 0 1.312-.946 2.38-2.157 2.38z"/></symbol><symbol id="icon-docs" viewBox="0 0 24 24"><path d="M19.275 6.975l-5.25-5.25A.68.68 0 0013.5 1.5H6c-.825 0-1.5.675-1.5 1.5v18c0 .825.675 1.5 1.5 1.5h12c.825 0 1.5-.675 1.5-1.5V7.5a.68.68 0 00-.225-.525zM13.5 3.3l4.2 4.2h-4.2V3.3zM18 21H6V3h6v4.5c0 .825.675 1.5 1.5 1.5H18v12z"/><path d="M7.5 16.5h9V18h-9v-1.5zM7.5 12h9v1.5h-9V12z"/></symbol><symbol id="icon-github" viewBox="0 0 24 24"><path fill-rule="evenodd" clip-rule="evenodd" d="M12 0C5.37 0 0 5.37 0 12c0 5.31 3.435 9.795 8.205 11.385.6.105.825-.255.825-.57 0-.285-.015-1.23-.015-2.235-3.015.555-3.795-.735-4.035-1.41-.135-.345-.72-1.41-1.23-1.695-.42-.225-1.02-.78-.015-.795.945-.015 1.62.87 1.845 1.23 1.08 1.815 2.805 1.305 3.495.99.105-.78.42-1.305.765-1.605-2.67-.3-5.46-1.335-5.46-5.925 0-1.305.465-2.385 1.23-3.225-.12-.3-.54-1.53.12-3.18 0 0 1.005-.315 3.3 1.23.96-.27 1.98-.405 3-.405s2.04.135 3 .405c2.295-1.56 3.3-1.23 3.3-1.23.66 1.65.24 2.88.12 3.18.765.84 1.23 1.905 1.23 3.225 0 4.605-2.805 5.625-5.475 5.925.435.375.81 1.095.81 2.22 0 1.605-.015 2.895-.015 3.3 0 .315.225.69.825.57A12.02 12.02 0 0024 12c0-6.63-5.37-12-12-12z"/></symbol><symbol id="icon-search" viewBox="0 0 24 24"><path d="M22.5 21.44l-3.517-3.516a6.021 6.021 0 10-1.06 1.06L21.44 22.5l1.06-1.06zm-8.25-2.69a4.5 4.5 0 110-9 4.5 4.5 0 010 9zM1.5 9h6v1.5h-6V9zM1.5 1.5h12V3h-12V1.5zM1.5 5.25h12v1.5h-12v-1.5z"/></symbol><symbol id="icon-twitter" viewBox="0 0 24 20"><path d="M23.643 2.937c-.835.37-1.732.62-2.675.733a4.67 4.67 0 002.048-2.578 9.3 9.3 0 01-2.958 1.13 4.66 4.66 0 00-7.938 4.25 13.229 13.229 0 01-9.602-4.868 4.66 4.66 0 001.442 6.22 4.647 4.647 0 01-2.11-.583v.06a4.66 4.66 0 003.737 4.568 4.693 4.693 0 01-2.104.08 4.661 4.661 0 004.352 3.234 9.348 9.348 0 01-5.786 1.995 9.5 9.5 0 01-1.112-.065 13.175 13.175 0 007.14 2.093c8.57 0 13.255-7.098 13.255-13.254 0-.2-.005-.402-.014-.602a9.47 9.47 0 002.323-2.41l.002-.003z"/></symbol><symbol id="icon-zoom" viewBox="0 0 15 15"><path d="M14.5 13.44l-3.517-3.516a6.021 6.021 0 10-1.06 1.06L13.44 14.5l1.06-1.06zm-8.25-2.69a4.5 4.5 0 110-9 4.5 4.5 0 010 9z"/></symbol> <view id="icon-close-view-green" viewBox="0 0 12 12"/><view id="icon-close-view-grey" viewBox="0 22 12 12"/><view id="icon-close-view-white" viewBox="0 44 12 12"/><view id="icon-discord-view-green" viewBox="0 66 24 18"/><view id="icon-discord-view-grey" viewBox="0 94 24 18"/><view id="icon-discord-view-white" viewBox="0 122 24 18"/><view id="icon-docs-view-green" viewBox="0 150 24 24"/><view id="icon-docs-view-grey" viewBox="0 184 24 24"/><view id="icon-docs-view-white" viewBox="0 218 24 24"/><view id="icon-github-view-green" viewBox="0 252 24 24"/><view id="icon-github-view-grey" viewBox="0 286 24 24"/><view id="icon-github-view-white" viewBox="0 320 24 24"/><view id="icon-search-view-green" viewBox="0 354 24 24"/><view id="icon-search-view-grey" viewBox="0 388 24 24"/><view id="icon-search-view-white" viewBox="0 422 24 24"/><view id="icon-twitter-view-green" viewBox="0 456 24 20"/><view id="icon-twitter-view-grey" viewBox="0 486 24 20"/><view id="icon-twitter-view-white" viewBox="0 516 24 20"/><view id="icon-zoom-view-green" viewBox="0 546 15 15"/><view id="icon-zoom-view-grey" viewBox="0 571 15 15"/><view id="icon-zoom-view-white" viewBox="0 596 15 15"/> <use xlink:href="#icon-close" x="0" y="0" width="12" height="12" style="fill:#69BA43"/><use xlink:href="#icon-close" x="0" y="22" width="12" height="12" style="fill:#777777"/><use xlink:href="#icon-close" x="0" y="44" width="12" height="12" style="fill:#ffffff"/><use xlink:href="#icon-discord" x="0" y="66" width="24" height="18" style="fill:#69BA43"/><use xlink:href="#icon-discord" x="0" y="94" width="24" height="18" style="fill:#777777"/><use xlink:href="#icon-discord" x="0" y="122" width="24" height="18" style="fill:#ffffff"/><use xlink:href="#icon-docs" x="0" y="150" width="24" height="24" style="fill:#69BA43"/><use xlink:href="#icon-docs" x="0" y="184" width="24" height="24" style="fill:#777777"/><use xlink:href="#icon-docs" x="0" y="218" width="24" height="24" style="fill:#ffffff"/><use xlink:href="#icon-github" x="0" y="252" width="24" height="24" style="fill:#69BA43"/><use xlink:href="#icon-github" x="0" y="286" width="24" height="24" style="fill:#777777"/><use xlink:href="#icon-github" x="0" y="320" width="24" height="24" style="fill:#ffffff"/><use xlink:href="#icon-search" x="0" y="354" width="24" height="24" style="fill:#69BA43"/><use xlink:href="#icon-search" x="0" y="388" width="24" height="24" style="fill:#777777"/><use xlink:href="#icon-search" x="0" y="422" width="24" height="24" style="fill:#ffffff"/><use xlink:href="#icon-twitter" x="0" y="456" width="24" height="20" style="fill:#69BA43"/><use xlink:href="#icon-twitter" x="0" y="486" width="24" height="20" style="fill:#777777"/><use xlink:href="#icon-twitter" x="0" y="516" width="24" height="20" style="fill:#ffffff"/><use xlink:href="#icon-zoom" x="0" y="546" width="15" height="15" style="fill:#69BA43"/><use xlink:href="#icon-zoom" x="0" y="571" width="15" height="15" style="fill:#777777"/><use xlink:href="#icon-zoom" x="0" y="596" width="15" height="15" style="fill:#ffffff"/></svg>