<svg width="80" height="74" viewBox="0 0 80 74" fill="none" xmlns="http://www.w3.org/2000/svg">
<path fill-rule="evenodd" clip-rule="evenodd" d="M68.488 15.0737C66.8896 15.5284 65.4064 16.2926 64.1008 17.3504C63.5952 17.0584 63.0736 16.8143 62.5184 16.6021C61.0352 16.0325 59.4848 15.7725 57.9696 15.7884C55.8832 15.8044 53.8272 16.3404 52.0176 17.3328C51.936 15.8698 51.6096 14.4227 51.0384 13.0235C50.6464 12.0646 50.1584 11.1696 49.5872 10.324H49.5712C48.0064 7.99945 45.7392 6.14554 43 4.94258C43.3744 4.35705 43.7168 3.75556 44.0112 3.12217C44.4352 2.21117 44.7616 1.28422 44.9904 0.341309C54.7744 1.70701 63.2208 7.23523 68.488 15.0737Z" fill="#CCCCCC"/>
<path fill-rule="evenodd" clip-rule="evenodd" d="M26.9872 71.7728C11.2672 66.3419 0 51.4309 0 33.9192C0 24.9114 2.984 16.6023 8.0064 9.91895C10.4032 10.3258 12.3936 11.1379 13.9744 12.3249C15.0672 13.1386 15.9632 14.1453 16.6656 15.3163C17.7088 17.0889 18.1664 19.0561 18.2304 20.894C18.328 23.1053 17.872 25.106 17.2528 26.3249C16.992 26.8291 16.96 27.4306 17.1712 27.9666C17.3664 28.5027 17.7904 28.9255 18.312 29.1377C19.4208 29.5605 20.432 30.162 21.3456 30.8943C25.0304 33.8698 26.2208 38.6833 24.3136 42.8936C23.9056 43.7711 23.5792 44.6662 23.3344 45.5772C23.2848 45.6905 23.2528 45.8213 23.2368 45.9505C22.6176 48.2113 22.4704 50.4864 22.7808 52.6657C23.1072 55.0238 23.9392 57.2511 25.2912 59.2182C26.5792 61.0562 27.3296 63.1861 27.5744 65.4134C27.8192 67.4954 27.624 69.6748 26.9872 71.7728Z" fill="#CCCCCC"/>
<path fill-rule="evenodd" clip-rule="evenodd" d="M80 39.4633C77.2928 58.9756 60.4976 73.9999 40.1952 73.9999C36.9824 73.9999 33.8688 73.6266 30.8848 72.9102C31.488 70.8936 31.7648 68.8291 31.7168 66.7646C31.6672 63.2354 30.6576 59.7893 28.6512 56.8951C28.6016 56.8138 28.5376 56.7324 28.488 56.651C26.776 54.0329 26.2864 50.716 27.0688 47.3671C33.4112 41.1401 43.016 40.9933 50.5824 47.1071C51.2176 47.6272 51.8224 48.1968 52.408 48.8461C52.8 49.2689 53.3376 49.497 53.9088 49.497C54.0224 49.497 54.1376 49.4971 54.2352 49.4811C54.92 49.3678 55.4912 48.9115 55.784 48.2941C56.5344 46.6029 57.6096 45.025 58.9632 43.6114C60.3824 42.1325 62.5024 40.5051 65.0784 39.3181C67.6704 38.1151 70.72 37.3669 73.9984 37.6764V37.6923C75.9232 37.8535 77.9456 38.4071 80 39.4633Z" fill="#CCCCCC"/>
<path fill-rule="evenodd" clip-rule="evenodd" d="M74.1952 33.5777C71.1296 33.3176 68.2272 33.8058 65.6336 34.6993C61.5088 36.1144 58.1488 38.5858 56.0288 40.7811C55.0176 41.8373 54.1376 42.9605 53.3872 44.1475C53.3056 44.0821 53.224 44.0167 53.1424 43.9529C45.6896 37.9205 36.5424 36.9122 29.1392 40.8465C29.5472 38.163 29.1552 35.4316 28.0304 32.9921C30.8848 28.0495 37.6192 25.3994 42.7056 27.3826C45.6736 28.5377 49.032 27.3171 50.5008 24.5857C50.5824 24.4884 50.648 24.3911 50.696 24.2762C50.712 24.2443 50.728 24.2268 50.728 24.1949C52.4736 20.5844 57.088 18.8948 61.0496 20.4057C61.376 20.519 61.6848 20.6657 61.9792 20.8285C62.3712 21.0231 62.7296 21.2672 63.056 21.5273C63.904 22.1942 65.1104 22.0809 65.8288 21.2991C67.0688 19.9334 68.7968 19.0559 70.64 18.7783C72.8736 23.236 74.1616 28.2601 74.1952 33.5777Z" fill="#CCCCCC"/>
<path fill-rule="evenodd" clip-rule="evenodd" d="M47.0112 22.5197C47.0112 22.5357 46.9952 22.5357 46.9952 22.5516C46.5056 23.544 45.2496 24.0147 44.1904 23.5919C37.8144 21.1046 29.84 23.7546 25.6016 29.3323C25.096 28.7627 24.5424 28.2426 23.9216 27.7384C23.2048 27.1689 22.4544 26.6647 21.6544 26.2259C22.5024 23.4451 22.632 19.8681 21.5888 16.4857C21.2624 15.3801 20.7904 14.2904 20.1872 13.2502C19.4208 11.9658 18.328 10.5842 16.7632 9.34772C22.8448 3.56104 31.1136 0 40.1952 0C40.4064 0 40.6192 0 40.8304 0.0159545C40.6992 0.488207 40.52 0.942909 40.3088 1.39761C39.7712 2.55271 39.0368 3.59295 38.1232 4.50395C37.6016 5.02406 37.4064 5.78828 37.6016 6.50464C37.8128 7.2194 38.384 7.75706 39.1184 7.9198C39.7056 8.06658 40.2768 8.22931 40.8144 8.43991C40.896 8.47182 40.9776 8.50532 41.0432 8.53723C41.0592 8.53723 41.0592 8.53723 41.0592 8.53723C43.9616 9.70829 46.1632 11.8382 47.256 14.5537C48.3008 17.1223 48.2016 19.9511 47.0112 22.5197Z" fill="#CCCCCC"/>
</svg>
